<?xml version="1.0" encoding="UTF-8"?>
<svg id="Layer_1" data-name="Layer 1" xmlns="http://www.w3.org/2000/svg" viewBox="0 0 216 297.18378">
  <defs>
    <style>
      .cls-1 {
        fill: #E53935;
      }
    </style>
  </defs>
  <path class="cls-1" d="M.00002,52.07167c-.01608-7.55146,7.94635-9.17476,9.69441-13.21405,2.76443-6.38786-3.51117-14.20043-6.26214-20.76837C10.62842,9.4117,21.09839,3.92725,32.51738,1.70757c3.70352,3.62895,4.86503,8.63697,8.20317,11.23834,1.21191-1.41802,3.02566-2.55484,3.39612-3.56214.77305-2.10197,3.39089-1.69774,4.02495.72304.3284,1.26922-2.16236,3.08828-2.89939,4.16009-1.06792,1.55298,1.21556,6.46262,2.84085,5.42958,5.453-3.46594,9.25132-9.27255,13.27514-13.43519,4.82296-4.98935,7.66588-2.77413,13.06711-2.69382,28.51851.42403,56.81474,1.31564,85.11456-.40491-.74298.04517,23.71085-10.45089,36.48019,6.55364,2.76144-.44328,5.97391-4.65243,7.61951-3.16547,1.9716,1.78153,3.67319,4.13369,4.72606,6.4471,1.23423,2.71191-3.9935,4.55096-5.74682,5.86492,1.57391,10.12951,13.17178,19.06232,13.18188,30.5023l.19929,225.68022c.00985,11.15595-8.9067,22.15272-19.62379,22.13849l-179.58281-.23844c-8.9136-.01184-16.29309-9.90871-16.31165-18.62438L.00002,52.07167ZM148.29779,37.86901c4.12756-.00972,7.00734-5.21268,6.29031-7.36257-.71704-2.14989-2.46963-7.73862-5.78853-7.95363-20.02696-1.29743-39.84366-.37354-60.24687-.43092-4.19333-.01179-5.81149,5.4348-5.80633,7.95359.00537,2.62316,1.60239,7.94405,5.80388,7.93416l59.74754-.14064ZM184.2364,236.57969l-22.71731-39.2633c-5.89781-10.19344-7.06023-19.77461-6.69185-31.40052.38637-12.19343-.78534-23.54372,5.54943-34.16509,8.85994-14.85525,17.98554-29.41035,25.13159-45.25795,2.10645-4.67142-3.45257-8.48045-6.37981-8.79954-3.94898-.43047-8.5854-.01934-10.89048,4.25848-8.41053,15.60843-16.50353,30.74573-27.07598,44.89177-1.88966,2.52838-6.27044,5.11683-9.56157,4.94915-38.70405-1.97202-46.91798,7.81065-60.50866-15.16724l-22.5724-38.16338c-3.20652-1.27808-10.95212-1.80384-12.70372.56991-4.54497,6.15928.3015,13.31242,3.46382,18.84468l23.92985,41.8636c-1.99014,15.14122,3.02052,32.06174-1.43082,47.09713-6.77039,22.86849-41.80375,60.47302-21.17022,63.79934,4.33389.69866,7.59816-1.09247,10.12285-5.43289,8.84366-15.20389,16.94544-30.24252,27.25511-44.65376,2.55284-3.56845,7.76496-5.63926,12.24898-5.64766l39.3849-.07379c7.37332-.01381,11.60771,4.46233,15.22151,10.12641,8.06122,12.63475,15.64389,25.13949,22.57041,38.47373,2.88942,5.56242,6.94374,8.93086,13.0619,6.35281,4.17984-1.76129,7.03853-7.5397,3.76246-13.20187Z"/>
  <path class="cls-1" d="M142.38219,174.94544c.35596,5.09878-4.42441,7.42526-8.88944,7.37301l-52.85998-.61847c-4.87801-5.95804-3.74347-28.58854-1.19834-32.61547,4.55173-7.20183,35.35547-4.6138,48.71771-4.67885,4.1439-.02017,12.11134,1.55161,13.3673,5.91911,2.2925,7.97203.28965,16.41149.86276,24.62067Z"/>
</svg>
